<?xml version="1.0" encoding="UTF-8"?>
<svg width="23px" height="22px" viewBox="0 0 23 22" version="1.1" xmlns="http://www.w3.org/2000/svg" xmlns:xlink="http://www.w3.org/1999/xlink">
    <!-- Generator: Sketch 64 (93537) - https://sketch.com -->
    <title>Combined Shape</title>
    <desc>Created with Sketch.</desc>
    <g id="April-2020/Concepts" stroke="none" stroke-width="1" fill="none" fill-rule="evenodd">
        <g id="Frontpage-Copy" transform="translate(-970.000000, -2905.000000)" fill="#E93567">
            <path d="M989,2925 L989,2927 L974,2927 L974,2925 L989,2925 Z M993,2909 L993,2924 L991,2924 L991,2925 L989,2925 L989,2923 L991,2923 L991,2909 L993,2909 Z M972,2909 L972,2923 L974,2923 L974,2925 L972,2925 L972,2924 L970,2924 L970,2909 L972,2909 Z M978,2922 L978,2920 L976,2920 L976,2913 L978,2913 L978,2911 L985,2911 L985,2913 L987,2913 L987,2920 L985,2920 L985,2922 L978,2922 Z M991,2907 L991,2909 L989,2909 L989,2910 L987,2910 L987,2908 L989,2908 L989,2907 L991,2907 Z M974,2907 L974,2909 L972,2909 L972,2907 L974,2907 Z M989,2905 L989,2907 L974,2907 L974,2905 L989,2905 Z M983,2918 L985,2918 L985,2915 L983,2915 L983,2913 L980,2913 L980,2915 L978,2915 L978,2918 L980,2918 L980,2920 L983,2920 L983,2918 Z" id="Combined-Shape"></path>
        </g>
    </g>
</svg>