<?xml version="1.0" standalone="no"?>
<!DOCTYPE svg PUBLIC "-//W3C//DTD SVG 20010904//EN"
 "http://www.w3.org/TR/2001/REC-SVG-20010904/DTD/svg10.dtd">
<svg version="1.0" xmlns="http://www.w3.org/2000/svg"
 width="300.000000pt" height="300.000000pt" viewBox="0 0 300.000000 300.000000"
 preserveAspectRatio="xMidYMid meet">
<metadata>
Created by potrace 1.11, written by Peter Selinger 2001-2013
</metadata>
<g transform="translate(0.000000,300.000000) scale(0.100000,-0.100000)"
fill="#000000" stroke="none">
<path d="M1305 2945 c-237 -32 -461 -122 -658 -262 -104 -74 -256 -226 -330
-330 -419 -588 -355 -1374 154 -1882 455 -456 1139 -560 1707 -261 359 189
628 526 732 917 134 501 -11 1033 -381 1402 -324 325 -775 478 -1224 416z
m128 -907 c-2 -134 -5 -250 -6 -258 -1 -8 -36 34 -76 93 -41 60 -109 154 -152
210 -42 56 -75 105 -73 108 14 23 220 86 285 88 l26 1 -4 -242z m290 215 c28
-8 75 -26 105 -39 48 -21 52 -25 40 -41 -7 -10 -52 -70 -99 -133 -47 -63 -110
-151 -140 -195 -29 -44 -54 -73 -56 -65 -1 8 -4 125 -6 258 l-4 244 54 -7 c31
-4 78 -13 106 -22z m-522 -363 c48 -96 103 -204 123 -238 20 -35 36 -67 36
-71 0 -4 -80 -11 -177 -14 -98 -4 -236 -13 -308 -22 -71 -8 -136 -15 -142 -15
-30 0 -3 163 44 277 52 122 150 247 253 322 l45 32 19 -48 c11 -26 59 -127
107 -223z m843 174 c138 -134 235 -338 236 -496 0 -45 10 -43 -155 -23 -66 8
-202 18 -302 21 -101 4 -183 11 -183 15 0 4 16 36 36 71 50 87 196 381 224
450 l23 57 30 -17 c16 -9 57 -44 91 -78z m-1169 -609 c72 -9 210 -18 308 -22
97 -3 177 -10 177 -14 0 -4 -16 -36 -36 -71 -49 -86 -180 -347 -219 -436 l-32
-72 -44 32 c-102 74 -201 200 -252 321 -47 114 -74 277 -44 277 6 0 71 -7 142
-15z m1405 -22 c-1 -189 -137 -437 -309 -561 l-44 -32 -37 82 c-46 103 -166
341 -214 426 -20 35 -36 67 -36 71 0 4 84 11 188 15 103 4 232 13 287 20 169
22 165 22 165 -21z m-846 -712 c-14 -16 -293 63 -308 87 -2 4 31 53 73 109 43
56 111 150 152 210 l74 108 6 -255 c3 -140 4 -257 3 -259z m217 403 c40 -58
107 -151 150 -207 42 -56 75 -105 73 -109 -15 -24 -294 -104 -308 -87 -4 5 5
509 10 509 2 0 35 -48 75 -106z"/>
</g>
</svg>
