<?xml version="1.0" standalone="no"?>
<!DOCTYPE svg PUBLIC "-//W3C//DTD SVG 20010904//EN"
 "http://www.w3.org/TR/2001/REC-SVG-20010904/DTD/svg10.dtd">
<svg version="1.0" xmlns="http://www.w3.org/2000/svg"
 width="300.000000pt" height="300.000000pt" viewBox="0 0 300.000000 300.000000"
 preserveAspectRatio="xMidYMid meet">
<metadata>
Created by potrace 1.11, written by Peter Selinger 2001-2013
</metadata>
<g transform="translate(0.000000,300.000000) scale(0.100000,-0.100000)"
fill="#000000" stroke="none">
<path d="M1665 2893 c-58 -86 -85 -240 -66 -373 10 -69 320 -1136 408 -1405
68 -211 200 -435 370 -632 39 -45 53 -69 53 -92 l0 -31 -446 -2 -447 -3 171
-173 172 -172 450 0 c373 0 450 2 450 14 0 7 -39 60 -87 117 -142 170 -267
378 -328 549 -63 178 -415 1385 -425 1462 -21 148 7 295 75 396 20 28 31 52
25 52 -6 0 -8 5 -5 10 3 6 -1 10 -10 10 -9 0 -13 5 -10 10 3 6 2 10 -3 10 -13
0 -53 36 -46 42 3 3 -7 9 -21 12 -14 4 -24 10 -21 14 3 5 -4 14 -14 22 -10 8
-17 17 -15 21 3 4 -7 10 -20 13 -14 4 -24 10 -21 14 3 5 -4 14 -14 22 -10 8
-17 17 -15 21 3 4 -7 10 -20 13 -14 4 -24 10 -21 14 3 5 -4 14 -14 22 -10 8
-17 17 -15 21 3 4 -7 10 -20 13 -14 4 -23 11 -20 16 3 6 -1 10 -9 10 -8 0 -27
-17 -41 -37z"/>
<path d="M1202 1878 c-61 -216 -121 -423 -131 -460 l-20 -68 223 0 223 0 22
79 21 80 -110 373 c-61 205 -112 377 -113 381 -1 5 -53 -168 -115 -385z"/>
<path d="M959 1023 c-41 -196 21 -409 161 -553 37 -38 50 -59 50 -81 l0 -29
-446 -2 -446 -3 172 -172 171 -173 445 0 c392 0 444 2 444 15 0 9 -28 49 -63
90 -71 83 -119 171 -142 260 -18 71 -19 217 -2 300 l13 60 171 3 c151 2 172 4
178 20 11 30 18 186 11 255 l-8 67 -348 0 -349 0 -12 -57z"/>
</g>
</svg>
